<svg xmlns="http://www.w3.org/2000/svg" xmlns:xlink="http://www.w3.org/1999/xlink" width="39.144" height="37.678" viewBox="0 0 39.144 37.678">
  <defs>
    <clipPath id="clip-path">
      <rect id="Rectangle_33" data-name="Rectangle 33" width="34.87" height="33.147" fill="#717fff"/>
    </clipPath>
  </defs>
  <g id="Groupe_114" data-name="Groupe 114" transform="matrix(0.99, 0.139, -0.139, 0.99, 4.613, 0)">
    <g id="Groupe_87" data-name="Groupe 87" clip-path="url(#clip-path)">
      <path id="Tracé_132" data-name="Tracé 132" d="M8.225,17.765a11.337,11.337,0,0,1-4.819-7.742A10.151,10.151,0,0,1,4.8,2.875,6.256,6.256,0,0,1,7.327.541,5.113,5.113,0,0,1,11.735.458,3.712,3.712,0,0,1,14,3.031a10.425,10.425,0,0,1,.275,4.062,36.475,36.475,0,0,1-1.424,6.755c-.148.492-.284.988-.422,1.483-.047.166-.094.34.082.46A.4.4,0,0,0,13,15.739a34.616,34.616,0,0,1,7.956-4.162A15.95,15.95,0,0,1,26.4,10.511a6.789,6.789,0,0,1,3.221.683,5.857,5.857,0,0,1,3.028,3.664,3.019,3.019,0,0,1-.931,3.108,6.822,6.822,0,0,1-2.791,1.625,19.642,19.642,0,0,1-9.735.748c-.281-.05-.554-.143-.83-.216-.071-.019-.153-.067-.211-.047a.769.769,0,0,0-.338.193c-.1.119-.017.243.089.344A9.048,9.048,0,0,1,20.578,29.1a5.287,5.287,0,0,1-1.464,2.667,3.6,3.6,0,0,1-3.666.909,5.349,5.349,0,0,1-3.034-2.03,6.657,6.657,0,0,1-1.007-2.38,11.809,11.809,0,0,1,.067-5.457c.08-.328-.011-.476-.286-.478a.351.351,0,0,0-.325.253c-.329.7-.619,1.414-.994,2.084a10.649,10.649,0,0,1-3.6,4,4.5,4.5,0,0,1-3.049.793A4.112,4.112,0,0,1,.8,28.268a2.8,2.8,0,0,1-.76-2.414,5.125,5.125,0,0,1,.923-2.284A11.227,11.227,0,0,1,5.747,19.74,10.051,10.051,0,0,1,8.7,18.894a.384.384,0,0,0,.357-.306c.046-.178-.064-.283-.2-.375-.214-.142-.419-.3-.628-.447" transform="translate(2.098 0)" fill="#717fff"/>
    </g>
  </g>
</svg>
