<svg xmlns="http://www.w3.org/2000/svg" xmlns:xlink="http://www.w3.org/1999/xlink" width="41.951" height="40.379" viewBox="0 0 41.951 40.379">
  <defs>
    <clipPath id="clip-path">
      <rect id="Rectangle_33" data-name="Rectangle 33" width="37.371" height="35.524" fill="#717fff"/>
    </clipPath>
  </defs>
  <g id="Groupe_124" data-name="Groupe 124" transform="matrix(0.99, 0.139, -0.139, 0.99, 4.944, 0)">
    <g id="Groupe_87" data-name="Groupe 87" clip-path="url(#clip-path)">
      <path id="Tracé_132" data-name="Tracé 132" d="M22.055,19.038a12.15,12.15,0,0,1-5.165-8.3,10.879,10.879,0,0,1,1.5-7.661,6.7,6.7,0,0,1,2.7-2.5A5.48,5.48,0,0,1,25.817.49a3.978,3.978,0,0,1,2.427,2.757,11.173,11.173,0,0,1,.3,4.353,39.091,39.091,0,0,1-1.526,7.239c-.158.528-.3,1.059-.452,1.589-.05.178-.1.365.088.493a.427.427,0,0,0,.523-.055A37.1,37.1,0,0,1,35.7,12.406a17.094,17.094,0,0,1,5.834-1.142A7.276,7.276,0,0,1,44.984,12a6.277,6.277,0,0,1,3.245,3.927,3.236,3.236,0,0,1-1,3.331A7.312,7.312,0,0,1,44.24,21a21.051,21.051,0,0,1-10.434.8c-.3-.054-.593-.153-.89-.231-.076-.02-.164-.072-.226-.051a.824.824,0,0,0-.363.207c-.1.127-.018.26.1.369a9.7,9.7,0,0,1,2.87,9.1,5.666,5.666,0,0,1-1.569,2.858,3.857,3.857,0,0,1-3.929.974,5.733,5.733,0,0,1-3.252-2.175,7.134,7.134,0,0,1-1.079-2.55,12.656,12.656,0,0,1,.072-5.848c.085-.351-.011-.51-.307-.512a.376.376,0,0,0-.349.271c-.353.746-.663,1.515-1.066,2.233a11.413,11.413,0,0,1-3.856,4.288,4.82,4.82,0,0,1-3.268.85,4.406,4.406,0,0,1-2.6-1.284,3,3,0,0,1-.815-2.587,5.492,5.492,0,0,1,.99-2.448A12.032,12.032,0,0,1,19.4,21.154a10.772,10.772,0,0,1,3.164-.906.411.411,0,0,0,.383-.328c.049-.191-.069-.3-.219-.4-.229-.152-.449-.319-.673-.479" transform="translate(-10.992 0)" fill="#717fff"/>
    </g>
  </g>
</svg>
